<svg id="Layer_1" data-name="Layer 1" xmlns="http://www.w3.org/2000/svg" viewBox="0 0 512 512"><defs><style>.cls-1{fill:#18aeb7;}.cls-2{fill:#fff;}</style></defs><path class="cls-1" d="M365.7,0H146.3A146.3,146.3,0,0,0,0,146.3V365.7A146.3,146.3,0,0,0,146.3,512H365.7A146.3,146.3,0,0,0,512,365.7V146.3A146.3,146.3,0,0,0,365.7,0" transform="translate(0 0)"/><path class="cls-2" d="M300.71,251.66c-2.13,11.78-4.25,23.42-6.38,35.19H159V384H132.41V251.66Z" transform="translate(0 0)"/><path class="cls-2" d="M149.84,242.55a74.59,74.59,0,0,1,.73-8c1-5.25,4.74-7.93,9.7-8.8,3.3-.58,6.71-.54,10.07-.79,3.06-.23,6.15-.27,9.16-.78,3.86-.65,5.43-2.41,5.7-6.34.24-3.4.05-6.84.05-10.48H150.14V127.91H247v79.41H211.68c.26,4.41.33,8.67.83,12.88.24,2,2,3.29,4,3.67a80.43,80.43,0,0,0,8.19,1.06c4,.33,8,.18,11.92.83,6.58,1.08,10,5.19,10.45,11.89.1,1.57,0,3.17,0,4.9Zm17.95-53h61.6V145.65h-61.6Z" transform="translate(0 0)"/><path class="cls-2" d="M302.17,313.48H271.79c-.74,2.9-1.49,5.79-2.22,8.69q-6.82,27.34-13.66,54.67c-1.32,5.28-6,8.22-11,7-4.81-1.21-7.48-6.05-6.17-11.31q7.09-28.5,14.22-57c.15-.59.27-1.18.47-2.08-2.28,0-4.39.06-6.51,0A8.85,8.85,0,0,1,245.1,296a12.39,12.39,0,0,1,2.92-.24q25.62,0,51.24,0h2.37c.72-3.87,1.42-7.66,2.11-11.45q7.06-38.86,14.12-77.74c.86-4.69,4.08-7.78,8.31-8a8.64,8.64,0,0,1,9,6.42,11.54,11.54,0,0,1,.12,4.72q-8.44,46.77-17,93.51a6.73,6.73,0,0,0,.19,2.71q8.3,33.31,16.64,66.63c1.74,7-3.58,12.82-10.34,11.35a8.51,8.51,0,0,1-6.75-6.78q-4.19-16.69-8.36-33.4C307.19,333.65,304.7,323.65,302.17,313.48Z" transform="translate(0 0)"/><path class="cls-2" d="M353.19,383.94V287h-23c2.17-11.94,4.29-23.61,6.43-35.35h43V383.94Z" transform="translate(0 0)"/></svg>